<?xml version="1.0" encoding="iso-8859-1"?>
<!-- Generator: Adobe Illustrator 24.1.0, SVG Export Plug-In . SVG Version: 6.00 Build 0)  -->
<svg version="1.1" id="Layer_1" xmlns="http://www.w3.org/2000/svg" xmlns:xlink="http://www.w3.org/1999/xlink" x="0px" y="0px"
	 viewBox="0 0 48 48" style="enable-background:new 0 0 48 48;" xml:space="preserve">
<rect x="28" y="15" style="fill:#21A366;" width="16" height="9"/>
<path style="fill:#185C37;" d="M44,24H12v16c0,1.105,0.895,2,2,2h28c1.105,0,2-0.895,2-2V24z"/>
<rect x="28" y="24" style="fill:#107C42;" width="16" height="9"/>
<rect x="12" y="15" style="fill:#3FA071;" width="16" height="9"/>
<path style="fill:#33C481;" d="M42,6H28v9h16V8C44,6.895,43.105,6,42,6z"/>
<path style="fill:#21A366;" d="M14,6h14v9H12V8C12,6.895,12.895,6,14,6z"/>
<path style="opacity:0.05;" d="M22.319,13H12v24h10.319C24.352,37,26,35.352,26,33.319V16.681C26,14.648,24.352,13,22.319,13z"/>
<path style="opacity:0.07;" d="M22.213,36H12V13.333h10.213c1.724,0,3.121,1.397,3.121,3.121v16.425
	C25.333,34.603,23.936,36,22.213,36z"/>
<path style="opacity:0.09;" d="M22.106,35H12V13.667h10.106c1.414,0,2.56,1.146,2.56,2.56V32.44C24.667,33.854,23.52,35,22.106,35z"
	/>
<linearGradient id="SVGID_1_" gradientUnits="userSpaceOnUse" x1="4.7254" y1="14.7254" x2="23.0549" y2="33.0549">
	<stop  offset="0" style="stop-color:#18884F"/>
	<stop  offset="1" style="stop-color:#0B6731"/>
</linearGradient>
<path style="fill:url(#SVGID_1_);" d="M22,34H6c-1.105,0-2-0.895-2-2V16c0-1.105,0.895-2,2-2h16c1.105,0,2,0.895,2,2v16
	C24,33.105,23.105,34,22,34z"/>
<path style="fill:#FFFFFF;" d="M9.807,19h2.386l1.936,3.754L16.175,19h2.229l-3.071,5l3.141,5h-2.351l-2.11-3.93L11.912,29H9.526
	l3.193-5.018L9.807,19z"/>
</svg>